<?xml version="1.0" encoding="UTF-8"?>
<svg width="96px" height="96px" viewBox="0 0 96 96" version="1.1" xmlns="http://www.w3.org/2000/svg" xmlns:xlink="http://www.w3.org/1999/xlink">
    <title>CDI_ICON_96x96</title>
    <g id="CDI_ICON_96x96" stroke="none" stroke-width="1" fill="none" fill-rule="evenodd">
        <g id="Group" transform="translate(12.325123, 12.928611)" fill="#FFFFFF" fill-rule="nonzero">
            <g id="database-share">
                <path d="M0,41.196 L0,57.696 C0.00330647698,60.5941242 2.35187576,62.9426935 5.25,62.946 L13.56,62.946 C13.9742136,62.946 14.31,63.2817864 14.31,63.696 L14.31,65.196 C14.31,65.6102136 13.9742136,65.946 13.56,65.946 L10.56,65.946 C9.31735931,65.946 8.31,66.9533593 8.31,68.196 C8.31,69.4386407 9.31735931,70.446 10.56,70.446 L22.56,70.446 C23.8026407,70.446 24.81,69.4386407 24.81,68.196 C24.81,66.9533593 23.8026407,65.946 22.56,65.946 L19.56,65.946 C19.360843,65.9468014 19.1696116,65.8680412 19.0287852,65.7272148 C18.8879588,65.5863884 18.8091986,65.395157 18.81,65.196 L18.81,63.696 C18.8091986,63.496843 18.8879588,63.3056116 19.0287852,63.1647852 C19.1696116,63.0239588 19.360843,62.9451986 19.56,62.946 L27.75,62.946 C30.6481242,62.9426935 32.9966935,60.5941242 33,57.696 L33,41.196 C32.9966935,38.2978758 30.6481242,35.9493065 27.75,35.946 L5.25,35.946 C2.35187576,35.9493065 0.00330647698,38.2978758 0,41.196 Z M28.5,41.196 L28.5,54.696 C28.5,55.1102136 28.1642136,55.446 27.75,55.446 L5.25,55.446 C4.83578644,55.446 4.5,55.1102136 4.5,54.696 L4.5,41.196 C4.5,40.7817864 4.83578644,40.446 5.25,40.446 L27.75,40.446 C28.1635306,40.4476443 28.4983557,40.7824694 28.5,41.196 Z" id="Shape"></path>
                <path d="M66.75,35.946 L44.25,35.946 C41.3518758,35.9493065 39.0033065,38.2978758 39,41.196 L39,57.696 C39.0033065,60.5941242 41.3518758,62.9426935 44.25,62.946 L52.56,62.946 C52.9742136,62.946 53.31,63.2817864 53.31,63.696 L53.31,65.196 C53.31,65.6102136 52.9742136,65.946 52.56,65.946 L49.56,65.946 C48.3173593,65.946 47.31,66.9533593 47.31,68.196 C47.31,69.4386407 48.3173593,70.446 49.56,70.446 L61.56,70.446 C62.8026407,70.446 63.81,69.4386407 63.81,68.196 C63.81,66.9533593 62.8026407,65.946 61.56,65.946 L58.56,65.946 C58.360843,65.9468014 58.1696116,65.8680412 58.0287852,65.7272148 C57.8879588,65.5863884 57.8091986,65.395157 57.81,65.196 L57.81,63.696 C57.8091986,63.496843 57.8879588,63.3056116 58.0287852,63.1647852 C58.1696116,63.0239588 58.360843,62.9451986 58.56,62.946 L66.75,62.946 C69.6481242,62.9426935 71.9966935,60.5941242 72,57.696 L72,41.196 C71.9966935,38.2978758 69.6481242,35.9493065 66.75,35.946 Z M44.25,40.446 L66.75,40.446 C67.1635306,40.4476443 67.4983557,40.7824694 67.5,41.196 L67.5,54.696 C67.5,55.1102136 67.1642136,55.446 66.75,55.446 L44.25,55.446 C43.8357864,55.446 43.5,55.1102136 43.5,54.696 L43.5,41.196 C43.5,40.7817864 43.8357864,40.446 44.25,40.446 Z" id="Shape"></path>
                <path d="M35.97,32.946 C42.837,32.946 47.622,29.811 47.622,26.994 L47.622,23.361 C47.6210581,23.0877497 47.4721601,22.8364535 47.2329432,22.7043859 C46.9937263,22.5723182 46.7017363,22.5802075 46.47,22.725 C43.2874812,24.5797778 39.6524744,25.5144939 35.97,25.425 C32.2875256,25.5144939 28.6525188,24.5797778 25.47,22.725 C25.2387289,22.5796947 24.9467501,22.5716024 24.7077859,22.703875 C24.4688217,22.8361477 24.3206569,23.0878703 24.3209994,23.361 L24.3209994,26.994 C24.3209994,29.823 29.1,32.946 35.97,32.946 Z" id="Shape"></path>
                <path d="M24.321,16.476 C24.321,19.29 29.121,22.425 35.97,22.425 C42.819,22.425 47.622,19.29 47.622,16.476 L47.622,12.84 C47.622,12.5664327 47.472933,12.3145984 47.2331762,12.182857 C46.9934195,12.0511157 46.7009505,12.0603679 46.47,12.207 C43.2869391,14.0604573 39.6523123,14.9950757 35.97,14.907 C32.2876877,14.9950757 28.6530609,14.0604573 25.47,12.207 C25.2395078,12.0602318 24.9472714,12.0510275 24.708,12.183 C24.4694565,12.3156713 24.3213872,12.5670448 24.321,12.84 L24.321,16.476 Z" id="Shape"></path>
                <path d="M24.321,5.955 C24.321,8.769 29.121,11.904 35.97,11.904 C42.819,11.904 47.622,8.769 47.622,5.955 C47.622,3.141 42.837,0 35.97,0 C29.103,0 24.321,3.138 24.321,5.955 Z" id="Shape"></path>
                <path d="M64.5,32.196 C65.7426407,32.196 66.75,31.1886407 66.75,29.946 L66.75,17.946 C66.7466935,15.0478758 64.3981242,12.6993065 61.5,12.696 L55.5,12.696 C54.2573593,12.696 53.25,13.7033593 53.25,14.946 C53.25,16.1886407 54.2573593,17.196 55.5,17.196 L61.5,17.196 C61.9142136,17.196 62.25,17.5317864 62.25,17.946 L62.25,29.946 C62.25,31.1886407 63.2573593,32.196 64.5,32.196 Z" id="Shape"></path>
                <path d="M9.75,29.946 L9.75,17.946 C9.75,17.5317864 10.0857864,17.196 10.5,17.196 L16.5,17.196 C17.7426407,17.196 18.75,16.1886407 18.75,14.946 C18.75,13.7033593 17.7426407,12.696 16.5,12.696 L10.5,12.696 C7.60187576,12.6993065 5.25330648,15.0478758 5.25,17.946 L5.25,29.946 C5.25,31.1886407 6.25735933,32.196 7.5,32.196 C8.74264067,32.196 9.75,31.1886407 9.75,29.946 Z" id="Shape"></path>
            </g>
        </g>
    </g>
</svg>