<?xml version="1.0" encoding="UTF-8"?>
<svg width="80px" height="80px" viewBox="0 0 80 80" version="1.1" xmlns="http://www.w3.org/2000/svg" xmlns:xlink="http://www.w3.org/1999/xlink">
    <title>Icon_Failure_72x72</title>
    <g id="Icon_Failure_72x72" stroke="none" stroke-width="1" fill="none" fill-rule="evenodd">
        <g id="icon/status/failure" transform="translate(4.000000, 4.000000)" fill="#FFFFFF" fill-rule="nonzero">
            <path d="M36.0015863,0 C38.2771884,0 40.371507,1.26489515 41.5003488,3.30193865 L41.6217627,3.53142935 L71.2756091,62.3515268 C72.305949,64.3946486 72.2330146,66.8485694 71.0833026,68.8217879 C69.97781,70.7191137 68.0314602,71.9061718 65.9093062,71.9946772 L65.6538464,72 L6.34615366,72 C4.12559325,72 2.06640973,70.7950068 0.916697551,68.8217879 C-0.185109943,66.9307868 -0.298001812,64.5983075 0.601342774,62.6089921 L0.724390978,62.3515268 L30.3814099,3.53142935 C31.4767796,1.36032619 33.6417026,0 36.0015863,0 Z M35.9238588,52.2450148 L35.8350273,52.2450148 C34.5783235,52.2688987 33.3836231,52.816532 32.5196505,53.7647357 C31.6556782,54.712939 31.1949767,55.9820968 31.2411716,57.2867374 C31.339837,59.9850084 33.4701297,62.1220879 36.0697962,62.1307455 L36.0697962,62.1307455 L36.1586276,62.1307455 C37.4184428,62.1095828 38.6168109,61.5616325 39.4826265,60.6108566 C40.3484417,59.6600806 40.8085382,58.3868248 40.7588285,57.0791371 C40.6566989,54.3814596 38.5230995,52.2482339 35.9238588,52.2450148 L35.9238588,52.2450148 Z M36,20.9072486 C34.308267,20.9072486 32.9258008,22.2825867 32.8324699,24.0155009 L32.8274477,24.2024922 L32.8274477,43.9739535 C32.8274477,45.7938661 34.2478479,47.269197 36,47.269197 C37.6917331,47.269197 39.0741992,45.8938588 39.1675301,44.1609448 L39.1725523,43.9739535 L39.1725523,24.2024922 C39.1725523,22.3825794 37.7521521,20.9072486 36,20.9072486 Z" id="Combined-Shape"></path>
        </g>
    </g>
</svg>