<?xml version="1.0" encoding="UTF-8"?>
<svg width="96px" height="96px" viewBox="0 0 96 96" version="1.1" xmlns="http://www.w3.org/2000/svg" xmlns:xlink="http://www.w3.org/1999/xlink">
    <title>CDR_ICON_96x96</title>
    <defs>
        <path d="M32.2178216,37.4101338 C38.7684895,31.3451604 49.197814,30.8224594 56.4165444,36.1973327 C63.6352749,41.572206 65.3274607,51.1202588 60.3428519,58.3512778 C60.1334534,58.649619 60.1785224,59.0431014 60.4508406,59.2940899 L60.4508406,59.2940899 L68.5827229,66.8244605 C69.4092846,67.5907315 69.7317818,68.707307 69.428733,69.7535836 C69.1256842,70.7998603 68.2431296,71.6168839 67.113519,71.8968896 C65.9839085,72.1768953 64.7788567,71.8773435 63.952295,71.1110725 L63.952295,71.1110725 L55.8236851,63.5807018 C55.5524361,63.3296517 55.1293674,63.2868038 54.8059727,63.4776291 C46.9975506,68.0911113 36.691969,66.5178204 30.8943655,59.8271886 C25.096762,53.1365567 25.6671538,43.4751072 32.2178216,37.4101338 Z M0.46423926,47.1790289 C0.749500326,47.0530639 1.0876569,47.0912566 1.33189326,47.277025 C7.50111489,51.1900029 14.6733402,53.5299095 22.127914,54.0616343 C22.4623992,54.0979761 22.7375084,54.3226412 22.8183877,54.6255026 C23.7707536,58.0656449 25.6383348,61.2299127 28.2505505,63.8292889 C28.4771313,64.0549114 28.533685,64.3851672 28.3936037,64.6646757 C28.2535223,64.9441842 27.9447007,65.1172863 27.612435,65.10254 C12.0849576,64.4143781 1.57064923e-05,59.2910583 1.57064923e-05,53.0672858 L1.57064923e-05,53.0672858 L1.57064923e-05,47.8651457 C-0.00194052208,47.5723988 0.178978194,47.3049939 0.46423926,47.1790289 Z M53.2628475,41.7725388 C49.9593915,38.7113392 44.9906172,37.7952194 40.6737057,39.4514107 C36.3567941,41.107602 33.5420006,45.0099023 33.5420006,49.3384791 C33.5474108,55.2454231 38.7140444,60.0331656 45.0902551,60.0398517 C49.7627091,60.0410775 53.9758192,57.4345494 55.7648072,53.435818 C57.5537952,49.4370865 56.5663035,44.8337384 53.2628475,41.7725388 Z M0.46423926,33.5218954 C0.749500326,33.3959304 1.0876569,33.434123 1.33189326,33.6198914 C7.77275833,37.6732375 15.2698972,40.0508293 23.04091,40.5045419 C23.2948614,40.5303502 23.5212192,40.6645798 23.6528487,40.8674199 C23.7844782,41.07026 23.8062657,41.3184206 23.7117494,41.5383005 C22.5347137,44.2624343 21.9895066,47.1855038 22.1115521,50.1175875 C22.1215767,50.3427732 22.0233296,50.5604899 21.843287,50.7120658 C21.6632445,50.8636417 21.4199329,50.9334796 21.1789217,50.902759 C8.8714734,49.2869428 1.57064919e-05,44.7578068 1.57064919e-05,39.4101523 L1.57064919e-05,39.4101523 L1.57064919e-05,34.2080122 C-0.00194052208,33.9152652 0.178978194,33.6478604 0.46423926,33.5218954 Z M60.8533443,19.9718526 C61.0957524,19.7874608 61.4308871,19.7483365 61.7150973,19.8712498 C61.9993074,19.9941631 62.1821321,20.2572909 62.1852059,20.5478471 C62.2702879,26.4714961 62.6204334,28.5086979 58.5430389,31.4432384 C58.2671126,31.6407491 57.8866437,31.655334 57.5940466,31.479617 C47.1248108,25.1694624 33.1301876,27.7782963 26.1104092,37.3486982 C25.9453986,37.573118 25.662992,37.6981411 25.3708497,37.6761056 C10.9396221,36.6271892 1.57064923e-05,31.7039517 1.57064923e-05,25.7681765 L1.57064923e-05,25.7681765 L1.57064923e-05,20.5630048 C-0.00194052208,20.2702579 0.178978194,20.002853 0.46423926,19.876888 C0.749500326,19.750923 1.0876569,19.7891157 1.33189326,19.9748841 C7.67050729,24.7586703 19.6343549,27.2839516 31.0877102,27.2839516 C42.5639721,27.2839516 54.5147302,24.7586703 60.8533443,19.9718526 Z M31.0877102,0 C48.2569609,0 62.1753887,5.42908498 62.1753887,12.1262007 C62.1753887,18.8233164 48.2569609,24.2524014 31.0877102,24.2524014 C13.9184594,24.2524014 3.16690629e-05,18.8233164 3.16690629e-05,12.1262007 C3.16690629e-05,5.42908498 13.9184594,0 31.0877102,0 Z" id="path-1"></path>
    </defs>
    <g id="CDR_ICON_96x96" stroke="none" stroke-width="1" fill="none" fill-rule="evenodd">
        <g id="color/9-#000000" transform="translate(13.000000, 12.000000)">
            <mask id="mask-2" fill="white">
                <use xlink:href="#path-1"></use>
            </mask>
            <use id="Mask" fill="#FFFFFF" fill-rule="nonzero" xlink:href="#path-1"></use>
        </g>
    </g>
</svg>