<?xml version="1.0" encoding="UTF-8"?>
<svg width="96px" height="96px" viewBox="0 0 96 96" version="1.1" xmlns="http://www.w3.org/2000/svg" xmlns:xlink="http://www.w3.org/1999/xlink">
    <title>CA_ICON_96x96</title>
    <defs>
        <path d="M3,0 C3.79564955,0 4.5587113,0.316070454 5.12132045,0.878679471 C5.68392959,1.44128849 6,2.20435006 6,3 L6,3 L6,38.8859918 C6,39.1700708 6.16050191,39.4297681 6.41458993,39.556812 C6.66867796,39.683856 6.9727369,39.656439 7.20000014,39.4859917 L7.20000014,39.4859917 L22.3830004,27.8279941 C22.5594676,27.6920901 22.7872112,27.6416519 23.0045595,27.6903379 C23.2219077,27.7390239 23.406372,27.8817967 23.5080005,28.0799941 C24.1501179,29.3311068 25.0744793,30.4156906 26.2080005,31.2479934 C26.39799,31.3888965 26.5100185,31.6114565 26.5100185,31.8479933 C26.5100185,32.0845301 26.39799,32.30709 26.2080005,32.4479931 L26.2080005,32.4479931 L6.30000013,47.7479899 C6.11039417,47.8890021 5.99904636,48.1116977 6,48.3479898 L6,48.3479898 L6,56.2949881 C6.00184353,56.5658937 6.14906977,56.8149275 6.38553723,56.9471258 C6.62200469,57.0793241 6.91125938,57.0743072 7.14300014,56.933988 L7.14300014,56.933988 L21.9870004,47.8049899 C22.1773873,47.6875072 22.4102809,47.66115 22.6221079,47.7331131 C22.8339349,47.8050762 23.0025773,47.9678456 23.0820005,48.1769898 C23.5807541,49.4904434 24.3800834,50.6688887 25.4160005,51.6179891 C25.5924711,51.7773018 25.682956,52.0108491 25.6598853,52.2474715 C25.6368147,52.4840938 25.502921,52.6957643 25.2990005,52.8179888 L25.2990005,52.8179888 L6.35700013,64.4609864 C6.13464724,64.5970961 5.99934098,64.8392829 6,65.0999862 L6,65.0999862 L6,65.2499862 C5.99919867,65.4491432 6.07795892,65.6403746 6.21878531,65.7812009 C6.3596117,65.9220273 6.55084315,66.0007875 6.75000013,65.9999861 L6.75000013,65.9999861 L69,65.9999861 C70.6568557,65.9999861 72,67.3431315 72,68.9999854 C72,70.6568393 70.6568557,72 69,72 L69,72 L4.46700009,72 C2.01006882,72.0066301 0.0115725498,70.0228982 0,67.5659857 L0,67.5659857 L0,3 C0,1.34314547 1.34314578,0 3,0 Z M64.5000012,46.4999902 C67.8137099,46.4999902 70.5000012,49.1862811 70.5000012,52.4999902 C70.5000012,55.8136967 67.8137099,58.4999902 64.5000012,58.4999902 C61.1862927,58.4999902 58.5000012,55.8136967 58.5000012,52.4999902 C58.5000012,49.1862811 61.1862927,46.4999902 64.5000012,46.4999902 Z M40.7719339,44.1936993 C40.9527791,44.0470204 41.1918659,43.9934688 41.4180008,44.0489907 L41.4180008,44.0489907 L55.9440011,47.42999 C56.1677989,47.4801155 56.3559718,47.6306538 56.4540011,47.8379899 C56.5490521,48.0476414 56.5446447,48.2889491 56.4420011,48.4949898 C55.8197596,49.7383082 55.496183,51.1096565 55.4970011,52.4999889 L55.4970011,52.4999889 L55.4970011,52.5269889 C55.5017607,52.7600323 55.3974641,52.9819399 55.2150011,53.1269888 C55.0348612,53.2694143 54.8002683,53.3233817 54.5760011,53.2739887 L54.5760011,53.2739887 L40.1370008,49.9109895 C39.915083,49.8594254 39.7284432,49.7101593 39.6293618,49.5050027 C39.5302805,49.299846 39.5294124,49.0608607 39.6270008,48.8549897 C40.2018156,47.6512813 40.4991229,46.3339025 40.4970008,44.9999905 L40.4970008,44.9999905 L40.4970008,44.7959905 C40.4893456,44.5632652 40.5910888,44.3403783 40.7719339,44.1936993 Z M31.5000005,38.9999918 C34.8137092,38.9999918 37.5000005,41.6862827 37.5000005,44.9999918 C37.5000005,48.3136983 34.8137092,50.9999918 31.5000005,50.9999918 C28.1862921,50.9999918 25.5000005,48.3136983 25.5000005,44.9999918 C25.5000005,41.6862827 28.1862921,38.9999918 31.5000005,38.9999918 Z M31.5000005,17.9999962 C34.8137092,17.9999962 37.5000005,20.6862871 37.5000005,23.9999962 C37.5000005,27.3137027 34.8137092,29.9999962 31.5000005,29.9999962 C28.1862921,29.9999962 25.5000005,27.3137027 25.5000005,23.9999962 C25.5000005,20.6862871 28.1862921,17.9999962 31.5000005,17.9999962 Z M54.9210011,14.5619969 C55.0585024,14.5254507 55.2051551,14.553017 55.3200011,14.6369969 C55.43305,14.7235336 55.4995439,14.8576295 55.5000011,14.9999968 C55.4988434,16.5234211 55.8871348,18.0218535 56.6280011,19.3529959 C56.7404121,19.5541924 56.754078,19.7959003 56.6650617,20.0084853 C56.5760454,20.2210703 56.3942322,20.3809247 56.1720011,20.4419957 L56.1720011,20.4419957 L41.2890008,24.5999948 C41.1015995,24.6513777 40.9009573,24.612525 40.7462827,24.4949017 C40.591608,24.3772785 40.500558,24.1943121 40.5000008,23.9999949 C40.4972572,22.5469793 40.1399173,21.1165903 39.4590008,19.8329958 C39.3538242,19.6337707 39.3449923,19.3975177 39.4350008,19.1909959 C39.5247142,18.982527 39.7030094,18.8251431 39.9210008,18.761996 L39.9210008,18.761996 Z M64.5000012,8.9999981 C67.8137099,8.9999981 70.5000012,11.686289 70.5000012,14.9999981 C70.5000012,18.3137046 67.8137099,20.9999981 64.5000012,20.9999981 C61.1862927,20.9999981 58.5000012,18.3137046 58.5000012,14.9999981 C58.5000012,11.686289 61.1862927,8.9999981 64.5000012,8.9999981 Z" id="path-1"></path>
    </defs>
    <g id="CA_ICON_96x96" stroke="none" stroke-width="1" fill-rule="evenodd">
        <g id="color/9-#000000-copy" transform="translate(12.000000, 12.000000)">
            <mask id="mask-2">
                <use xlink:href="#path-1"></use>
            </mask>
            <use id="Mask" fill-rule="nonzero" xlink:href="#path-1"></use>
        </g>
    </g>
</svg>