<?xml version="1.0" encoding="UTF-8"?>
<svg width="96px" height="96px" viewBox="0 0 96 96" version="1.1" xmlns="http://www.w3.org/2000/svg" xmlns:xlink="http://www.w3.org/1999/xlink">
    <title>CDM_ICON_96x96</title>
    <g id="CDM_ICON_96x96" stroke="none" stroke-width="1" fill-rule="evenodd">
        <g id="Group" transform="translate(47.954273, 48.000000) rotate(-90.000000) translate(-47.954273, -48.000000) translate(11.954273, 6.045727)" fill-rule="nonzero">
            <g id="move-to-bottom">
                <path d="M49.7776641,49.4346822 C49.0245338,48.7876965 47.970632,48.6217053 47.0551579,49.005883 C46.1396839,49.3900608 45.5197012,50.258496 45.4535791,51.2492801 L43.9120096,74.6117913 C43.8556112,75.4363981 44.1917393,76.239238 44.818774,76.7775926 C45.4458086,77.3159473 46.2901459,77.5266223 47.0965217,77.3459254 L69.9543971,72.2867285 C70.9198674,72.0680946 71.6802885,71.3248502 71.9210711,70.3644785 C72.1618537,69.4041067 71.8420523,68.3899205 71.09397,67.7414928 L63.816084,61.493542 C63.5231353,61.2393284 63.4308804,60.8233869 63.5888685,60.4691158 C71.714709,42.7679604 68.966271,21.9737319 56.5207199,6.99267023 C54.6370377,4.82709125 51.3627521,4.57849338 49.1738308,6.43486276 C46.9849094,8.29123214 46.6947361,11.5627583 48.5227357,13.7755603 C57.5341984,24.6251076 60.15817,39.4233378 55.4265901,52.7107482 C55.3293522,52.9821038 55.1064849,53.1893736 54.8288386,53.2666654 C54.5494491,53.3411106 54.251326,53.2731038 54.0318367,53.084856 L49.7776641,49.4346822 Z" id="Shape"></path>
                <path d="M5.01621826,24.4743458 L19.4566347,24.4743458 C22.2262155,24.4704876 24.4693574,22.2237567 24.4693574,19.4536086 L24.4693574,5.01374455 C24.4674294,2.24552906 22.224286,0.00192839882 19.4566347,0 L5.01621826,0 C2.24799962,0.00192543784 0.0038547893,2.24496359 0,5.01374455 L0,19.4536086 C0.00192504924,22.2243225 2.24607106,24.4704902 5.01621826,24.4743458 Z M6.99124496,7.86325767 C6.99317009,7.38188049 7.38386767,6.99266317 7.86515058,6.99266317 L16.6042068,6.99266317 C16.836266,6.99173618 17.0590903,7.08352692 17.2231823,7.24765233 C17.3872742,7.41177775 17.4790463,7.63464749 17.4781195,7.866754 L17.4781195,16.6075918 C17.4790463,16.8396983 17.3872742,17.062568 17.2231823,17.2266935 C17.0590903,17.3908189 16.836266,17.4826096 16.6042068,17.4816826 L7.86515058,17.4816826 C7.38250583,17.4816826 6.99124496,17.0903349 6.99124496,16.6075918 L6.99124496,7.86325767 Z" id="Shape"></path>
                <path d="M0,49.172457 C0.00192504924,51.943171 2.24607106,54.1893387 5.01621826,54.1931942 L19.4566347,54.1931942 C22.2262155,54.1893361 24.4693574,51.9426051 24.4693574,49.172457 L24.4693574,34.732593 C24.4674294,31.9643775 22.224286,29.7207769 19.4566347,29.7188485 L5.01621826,29.7188485 C2.24799962,29.7207739 0.0038547893,31.963812 0,34.732593 L0,49.172457 Z M6.99124496,37.5821061 C6.99124496,37.099363 7.38250583,36.7080153 7.86515058,36.7080153 L16.6042068,36.7080153 C16.836266,36.7070883 17.0590903,36.798879 17.2231823,36.9630045 C17.3872742,37.1271299 17.4790463,37.3499996 17.4781195,37.5821061 L17.4781195,46.3229439 C17.4790463,46.5550504 17.3872742,46.7779202 17.2231823,46.9420456 C17.0590903,47.106171 16.836266,47.1979617 16.6042068,47.1970347 L7.86515058,47.1970347 C7.38250583,47.1970347 6.99124496,46.805687 6.99124496,46.3229439 L6.99124496,37.5821061 Z" id="Shape"></path>
                <path d="M1.435,59.4342006 L23.0343574,59.4342006 C23.826886,59.4342006 24.4693574,60.076672 24.4693574,60.8692006 L24.4693574,82.4735464 C24.4693574,83.266075 23.826886,83.9085464 23.0343574,83.9085464 L1.435,83.9085464 C0.642471384,83.9085464 5.41145973e-16,83.266075 0,82.4735464 L0,60.8692006 C1.24987842e-16,60.076672 0.642471384,59.4342006 1.435,59.4342006 Z" id="Rectangle-path"></path>
            </g>
        </g>
    </g>
</svg>