<?xml version="1.0" encoding="UTF-8"?>
<svg width="96px" height="96px" viewBox="0 0 96 96" version="1.1" xmlns="http://www.w3.org/2000/svg" xmlns:xlink="http://www.w3.org/1999/xlink">
    <title>DSW_ICON_96x96</title>
    <g id="DSW_ICON_96x96" stroke="none" stroke-width="1" fill-rule="evenodd">
        <path d="M79.173,40.7976658 L74.817,43.9461475 C74.781,43.9720728 74.742,44.0008787 74.706,44.0325651 L74.589,44.110341 L69.621,47.7024331 C69.4437804,47.8301483 69.3447224,48.0344294 69.357,48.2468641 C69.3763547,48.5082291 69.3673058,48.770819 69.33,49.0303838 C68.9742715,51.3905175 66.694483,53.0277034 64.2361681,52.6884206 C61.7778533,52.3491377 60.0705914,50.1616814 60.4215578,47.8008905 C60.7725241,45.4400996 63.0490052,43.7986761 65.508,44.1333857 C65.7791017,44.1718046 66.0454586,44.2364671 66.303,44.326385 C66.5059474,44.3950476 66.7312231,44.3615197 66.903,44.2370868 L69.003,42.7276592 C69.6657417,42.2503879 69.8000563,41.3476099 69.303,40.7112482 L66.723,37.4129759 C66.444821,37.056714 66.0106717,36.8440261 65.547,36.8368585 C65.3904509,36.8337218 65.234207,36.8221815 65.079,36.8022914 C62.6210285,36.4607224 60.9159741,34.2716793 61.2693217,31.9112159 C61.6226693,29.5507526 63.9008052,27.9114471 66.3594611,28.2484434 C68.8181171,28.5854398 70.5275847,30.7713072 70.179,33.1324234 C70.1548057,33.2808017 70.1227643,33.4279018 70.083,33.5731533 C69.9604495,34.0021769 70.0512504,34.4615017 70.329,34.8175669 L72.9,38.1187198 C73.3970563,38.7550815 74.3372583,38.8840498 75,38.4067785 L78.771,35.6817431 C79.0733766,35.4624167 79.278091,35.1413248 79.344,34.7829999 C79.4459792,34.2488907 79.4981856,33.707118 79.5,33.1641099 C79.5,30.4901827 78.3937532,27.9257725 76.4246212,26.0350205 C74.4554892,24.1442684 71.7847731,23.0820549 69,23.0820549 C68.9931333,23.0828858 68.9862273,23.0808299 68.9810545,23.0764149 C68.9758817,23.0719999 68.9729457,23.0656556 68.973,23.0590103 C68.5590836,17.3983933 63.6597824,13.0072215 57.75,13 C55.2328464,13.0009926 52.7902115,13.8203622 50.82,15.3246338 C50.459422,15.5982238 50.2493578,16.0154301 50.25,16.4567046 L50.25,41.8058713 C50.2499999,42.9990495 49.2426407,43.9663115 48,43.9663115 C46.7573593,43.9663115 45.7500001,42.9990495 45.75,41.8058713 L45.75,16.4567046 C45.7506422,16.0154301 45.540578,15.5982238 45.18,15.3246338 C43.2097885,13.8203622 40.7671536,13.0009926 38.25,13 C32.3402176,13.0072215 27.4409164,17.3983933 27.027,23.0590103 C27.0270543,23.0656556 27.0241183,23.0719999 27.0189455,23.0764149 C27.0137727,23.0808299 27.0068667,23.0828858 27,23.0820549 C21.2010101,23.0820549 16.5,27.5959447 16.5,33.1641099 C16.5029821,33.7062415 16.5561919,34.2470433 16.659,34.7801193 C16.724909,35.1384442 16.9296234,35.4595361 17.232,35.6788625 L21,38.4067785 C21.6627417,38.8840498 22.6029437,38.7550815 23.1,38.1187198 L25.68,34.8290893 C25.9586903,34.4723174 26.0495351,34.0117069 25.926,33.581795 C25.8859317,33.4366126 25.8538869,33.2894973 25.83,33.1410652 C25.4814153,30.779949 27.1908829,28.5940815 29.6495389,28.2570852 C32.1081948,27.9200888 34.3863307,29.5593943 34.7396783,31.9198577 C35.0930259,34.2803211 33.3879715,36.4693642 30.93,36.8109332 C30.774793,36.8308232 30.6185491,36.8423636 30.462,36.8455003 C29.9983283,36.8526679 29.564179,37.0653558 29.286,37.4216177 L26.7,40.7198899 C26.2029437,41.3562517 26.3372583,42.2590296 27,42.7363009 L29.1,44.2457286 C29.2718831,44.3696901 29.4964168,44.4041855 29.7,44.3379074 C29.957006,44.2456984 30.2235091,44.1800348 30.495,44.1420274 C32.9539948,43.8073179 35.2304759,45.4487414 35.5814422,47.8095323 C35.9324086,50.1703232 34.2251467,52.3577795 31.7668319,52.6970623 C29.308517,53.0363452 27.0287285,51.3991592 26.673,49.0390256 C26.6362156,48.780399 26.6261667,48.5189127 26.643,48.2583865 C26.6579806,48.0446547 26.5584603,47.8383344 26.379,47.7110749 L21.324,44.0498487 L21.294,44.0325651 C21.2604876,44.0039412 21.2254398,43.977019 21.189,43.9519087 L16.827,40.7976658 C16.2053878,40.3474769 15.3283937,40.4288077 14.808,40.984904 C13.0664904,42.7761992 12.0677106,45.1174065 12,47.5670455 C12.1447097,50.9698008 13.9886681,54.0969697 16.953,55.9668376 C17.5575574,56.3644245 17.774466,57.1232265 17.466,57.7614434 C16.2444053,60.2931269 16.1787227,63.1994924 17.2847914,65.7796757 C18.39086,68.3598591 20.5682905,70.3796766 23.292,71.3520535 C23.8440313,71.553171 24.4675872,71.4246288 24.885,71.0236665 L29.91,66.2015637 C30.0670283,66.050827 30.1336792,65.8338847 30.087,65.6254463 C30.0306226,65.370668 30.0014716,65.1110302 30,64.8505683 C30,62.4642118 32.0147186,60.5296876 34.5,60.5296876 C36.9852814,60.5296876 39,62.4642118 39,64.8505683 C39,67.2369248 36.9852814,69.171449 34.5,69.171449 C34.2265673,69.1705406 33.9540191,69.1415701 33.687,69.0850314 C33.4694286,69.041492 33.243682,69.1065203 33.087,69.2578666 L28.233,73.9215372 C27.7934954,74.3349601 27.6614861,74.9641665 27.9,75.5087407 C29.2335572,78.6243058 32.0148311,80.9567162 35.4094908,81.8062916 C38.8041506,82.655867 42.4172775,81.9237719 45.165,79.8296214 C45.5267034,79.5566106 45.7379181,79.1393157 45.738,78.6975506 L45.738,72.0520361 C45.7380001,70.8588579 46.7453593,69.8915959 47.988,69.8915959 C49.2306407,69.8915959 50.2379999,70.8588579 50.238,72.0520361 L50.238,78.6773865 C50.2380819,79.1191516 50.4492966,79.5364465 50.811,79.8094573 C53.5566805,81.9141765 57.1740891,82.6549285 60.5751411,81.8089014 C63.9761932,80.9628744 66.7639949,78.6287976 68.1,75.5087407 C68.3360763,74.9696468 68.2092306,74.3470035 67.779,73.9330595 L62.91,69.2578666 C62.7524597,69.1079011 62.5274963,69.0430984 62.31,69.0850314 C62.0429809,69.1415701 61.7704327,69.1705406 61.497,69.171449 C59.0121098,69.1698584 56.9988962,67.2346304 57,64.8486492 C57.0011047,62.462668 59.0161087,60.5291588 61.5009993,60.5296887 C63.98589,60.5302186 66,62.4645869 66,64.8505683 C65.9987328,65.1119934 65.9695807,65.3726063 65.913,65.6283268 C65.8663208,65.8367653 65.9329717,66.0537076 66.09,66.2044443 L71.1,71.0265471 C71.5174128,71.4275094 72.1409687,71.5560516 72.693,71.3549341 C75.4167095,70.3825572 77.59414,68.3627397 78.7002086,65.7825563 C79.8062773,63.202373 79.7405947,60.2960075 78.519,57.764324 C78.210534,57.1261071 78.4274426,56.3673051 79.032,55.9697182 C82.0028849,54.1024945 83.8528613,50.9735199 84,47.5670455 C83.9322894,45.1174065 82.9335096,42.7761992 81.192,40.984904 C80.6716063,40.4288077 79.7946122,40.3474769 79.173,40.7976658 Z" id="Shape" fill-rule="nonzero"></path>
    </g>
</svg>