<svg width="185px" height="21px" viewBox="0 0 185 21" version="1.1" xmlns="http://www.w3.org/2000/svg" class="NavigationBar-waves-19"><g id="Kit" stroke="none" stroke-width="1" fill="none" fill-rule="evenodd"><g id="Desktop-HD" transform="translate(-247.000000, 0.000000)"><g id="navigation/nav-bar/1920px"><g id="color"><g id="Group-3" transform="translate(247.000000, 0.000000)"><g id="navigation/ui/waves2"><g id="Group"><path d="M54.9325808,0 C77.5029486,0 120.858755,0 185,0 C171.32629,14.1943641 155.557048,17.5951583 137.692273,10.2023824 C120.961239,3.27876969 98.0964306,-1.3097847 72.9279137,4.36823516 C62.8036847,6.65226221 54.9325808,0 54.9325808,0 Z" id="Rectangle" fill="#9E54B0" opacity="0.56"></path><path d="M163,17.1200171 C122.314696,-10.8799829 90.0556521,0.120017111 48,17.1200171" id="Oval" fill="#DF216D" opacity="0.48" transform="translate(105.500000, 8.560009) scale(1, -1) translate(-105.500000, -8.560009) "></path><path d="M146,0 C95.8498503,2.47023843 86.3236871,22 67.2150984,21 C48.1065097,20 41.1758931,0 21,0 C21,0 127.510346,0 146,0 Z" id="Rectangle" fill="#0768FD" opacity="0.48"></path><path d="M127.599244,0 C74.1415345,2.37002728 60.5120958,16 44.576104,16 C28.6401121,16 12.0822564,0 0.599244377,0 C0.599244377,0 107.890139,0 127.599244,0 Z" id="Rectangle" fill="#00C221" opacity="0.4"></path></g></g></g></g></g></g></g></svg>